<svg xmlns="http://www.w3.org/2000/svg" width="309.025" height="50.253" viewBox="0 0 309.025 50.253"><path d="M8.414 8.893c-.137-.218-.438.068-.549.012-.111-.053-.083-.465-.34-.434-.549.071-.809.49-.799 1.136.003.288.129.682.188.714.057.021-.207-.998.383-1.139.225-.062.166.283.277.336s.34-.209.439.003c.26.549-.701.984-.645 1.015.059.028.441-.124.672-.304.507-.399.669-.864.374-1.339m.732 2.364c.015-.124.419-.221.308-.459-.236-.5-.719-.618-1.328-.412-.273.097-.61.339-.617.403-.008.062.883-.506 1.201.009.124.199-.22.25-.236.371-.016.121.305.26.133.419-.439.416-1.151-.357-1.161-.298-.009.061.253.381.491.546.537.355 1.033.369 1.391-.058.167-.2-.199-.397-.182-.521m-1.331.71c-.175-.235-.511-.479-.57-.468-.065.015.753.682.363 1.144-.153.179-.305-.131-.43-.109-.118.025-.15.373-.356.255-.531-.289-.012-1.208-.075-1.198-.061.012-.286.363-.365.641-.175.62-.032 1.095.481 1.302.244.1.32-.31.44-.332.124-.021.341.332.528.152.409-.38.37-.876-.016-1.387m-1.329-.499c-.031-.053-.416.928-.978.698-.218-.09.031-.331-.026-.44-.059-.106-.398-.026-.357-.261.116-.596 1.15-.388 1.119-.438-.027-.056-.427-.163-.719-.151-.645.024-1.051.303-1.09.862-.018.257.393.204.451.31.059.112-.209.427.019.552.488.267.942.08 1.316-.446.168-.237.297-.63.265-.686m.065-1.828c-.223-.605-.618-.903-1.157-.77-.252.065-.076.44-.16.531-.087.085-.468-.071-.517.184-.104.544.217.921.831 1.111.276.088.692.088.735.04.043-.046-1.009-.107-.967-.713.016-.234.323-.069.41-.161.084-.09-.096-.388.135-.419.603-.076.724.975.77.928.044-.04.02-.459-.08-.731m38.784.044c-.035-.26-.427-.125-.506-.218-.08-.095.119-.462-.129-.534-.533-.166-.941.112-1.201.696-.115.268-.162.684-.121.732.043.042.222-.992.819-.881.231.043.033.329.116.427.077.088.395-.053.398.183.006.608-1.051.608-1.008.654.04.047.453.075.736.004.627-.154.968-.514.896-1.063m-.316 2.452c.068-.102.478-.028.473-.288-.006-.558-.396-.862-1.036-.922-.289-.031-.696.055-.729.108-.036.056 1.009-.095 1.089.508.032.23-.304.13-.369.237-.064.104.171.363-.05.438-.576.192-.906-.809-.936-.756-.037.055.067.453.224.7.338.549.787.76 1.289.522.231-.112-.017-.438.045-.547m-1.499.095c-.062-.289-.267-.646-.326-.664-.063-.012.4.936-.146 1.195-.212.104-.226-.245-.342-.271-.118-.033-.289.271-.434.08-.357-.482.489-1.105.431-1.119-.063-.021-.41.207-.6.43-.413.488-.478.983-.097 1.384.18.192.419-.152.537-.121.119.028.171.441.419.355.525-.176.696-.643.558-1.269m-1.005-1c-.005-.065-.763.67-1.18.23-.159-.171.166-.289.157-.413-.011-.123-.349-.192-.213-.384.352-.494 1.203.125 1.198.059-.003-.062-.324-.326-.593-.434-.597-.242-1.087-.153-1.35.334-.124.231.271.354.279.475.012.127-.364.298-.208.51.333.443.826.464 1.381.132.255-.143.535-.45.529-.509m.814-1.643c.046-.639-.19-1.073-.736-1.175-.255-.049-.249.363-.36.41-.116.046-.401-.258-.552-.042-.318.451-.183.933.295 1.357.221.192.6.366.657.342.056-.028-.878-.516-.588-1.054.114-.207.328.073.438.027.115-.05.077-.396.301-.328.58.183.256 1.188.313 1.163.061-.022.21-.409.232-.7M7.846 37.102c-.191-.176-.406.177-.529.156-.121-.02-.197-.434-.438-.332-.515.211-.654.687-.479 1.306.084.281.311.625.373.641.058.01-.465-.908.066-1.205.205-.111.238.234.356.258.12.018.275-.295.427-.113.395.457-.417 1.135-.354 1.146.063.01.396-.232.569-.469.382-.518.416-1.01.009-1.388m1.323 2.083c-.015-.117.347-.324.179-.516-.361-.428-.854-.414-1.388-.053-.243.166-.501.486-.493.549.012.066.719-.719 1.164-.305.173.162-.148.299-.131.414.018.125.361.174.238.373-.32.52-1.21-.043-1.201.02.008.063.342.301.621.393.611.209 1.092.086 1.322-.418.114-.238-.292-.332-.311-.457m-1.096 1.037c-.229-.184-.616-.326-.674-.303-.054.031.907.461.652 1.014-.101.213-.329-.051-.438.002-.111.055-.049.402-.278.346-.591-.143-.331-1.162-.39-1.139-.057.025-.181.422-.186.713-.007.646.26 1.063.812 1.129.26.031.226-.385.336-.438.11-.051.412.229.55.006.291-.469.125-.935-.384-1.33m-1.411-.137c-.043-.039-.156 1.01-.76.938-.234-.033-.057-.33-.143-.418-.086-.086-.392.076-.41-.16-.049-.604 1.008-.672.962-.717-.042-.049-.459-.043-.735.045-.611.191-.928.57-.821 1.119.05.25.431.094.517.182.084.09-.09.467.164.525.538.133.932-.174 1.15-.779.101-.268.121-.688.076-.735m-.422-1.777c-.371-.521-.833-.709-1.318-.436-.226.125.043.441-.016.551-.058.107-.467.057-.448.316.044.553.451.836 1.095.859.293.006.69-.104.721-.16.027-.057-1.002.166-1.121-.434-.047-.229.293-.154.354-.262.059-.111-.192-.35.021-.441.561-.234.952.748.984.691.031-.053-.101-.446-.272-.684m36.781-1.376c-.249-.074-.292.332-.411.363-.117.031-.365-.302-.54-.107-.372.408-.297.9.127 1.385.195.215.547.434.606.418.063-.018-.804-.621-.45-1.113.137-.193.314.105.436.072.114-.027.12-.377.335-.281.55.252.105 1.205.169 1.188.063-.012.257-.377.313-.664.123-.633-.057-1.091-.585-1.261m2.089 1.321c-.067-.102.174-.438-.062-.549-.508-.225-.948 0-1.278.551-.15.248-.242.652-.21.703.036.057.34-.957.921-.771.225.068-.007.33.061.436.066.104.398-.004.374.232-.065.602-1.113.48-1.079.525.034.057.441.129.729.098.64-.078 1.023-.393 1.021-.947-.004-.262-.41-.176-.477-.278m-.551 1.405c-.283-.066-.696-.033-.736.014-.04.051 1.014.025 1.019.635.001.232-.314.104-.395.195-.076.096.124.379-.106.428-.593.123-.794-.912-.835-.863-.04.047.015.457.136.723.271.584.688.848 1.213.674.248-.08.045-.439.121-.535.077-.096.471.031.499-.229.062-.554-.29-.906-.916-1.042m-1.333.484c-.058-.023.288.971-.29 1.162-.224.078-.189-.271-.303-.318-.117-.041-.325.244-.441.037-.3-.527.623-1.043.563-1.064-.061-.02-.433.16-.649.354-.469.438-.593.918-.266 1.367.155.209.432-.098.546-.059.118.045.121.461.375.41.543-.117.771-.557.712-1.195-.029-.292-.191-.67-.247-.694m-1.141-1.435c-.561-.309-1.057-.283-1.38.17-.148.209.231.383.223.504-.009.123-.399.25-.27.479.272.484.763.557 1.354.307.264-.111.583-.387.584-.449.003-.059-.838.574-1.198.086-.139-.186.2-.268.207-.389.006-.121-.325-.23-.166-.406.41-.449 1.181.268 1.184.201.002-.06-.284-.359-.538-.503M11.943 5.047a3.78 3.78 0 0 0-.818-.608l.049-.176c.313-.003.67.007 1.043.085l-.274.699zm5.059.982c-.182.117-.425.264-.713.423-.311.174-.669.359-1.051.552-.498.252-1.104.368-1.634.009a12.41 12.41 0 0 1-.245 1.116l-.641-.424c.21-.202.396-.477.396-.477l-.888-1.603-.383.209-.093-.171.938-.517.91 1.647c.449.154.819.044 1.377-.264.485-.27 1.366-.813 1.835-1.197l.192.697zm-2.202-2.8l-.128-.009a1.764 1.764 0 0 0-.186-.646l-1.813 1.003.283.511-.502.274-.374-.675 2.824-1.562.188.34c-.02.26-.119.419-.292.764m.464 2.341l.277.504-.502.278-.277-.502-1.163.644-.093-.166 1.165-.645-.173-.311-.865.478-.723-1.302.866-.482-.144-.261-.539.298-.092-.165.537-.295-.168-.308.502-.277.168.305.509-.28.091.164-.508.282.147.26.881-.489.722 1.306-.881.49.172.311 1.218-.676.093.167-1.22.672zm-1.398-1.339l-.387.217.21.376.387-.211-.21-.382zm.303.548l-.386.209.235.431.389-.212-.238-.428zm.607-1.05l-.406.225.209.379.404-.228-.207-.376zm.299.545l-.404.224.237.425.404-.224-.237-.425zm5.478-.139l.155.906-.565.094-.155-.908-.903.153-.035-.183.903-.153-.078-.48-.707.123-.314-1.848.706-.125-.071-.406-.819.142-.036-.188.824-.139-.112-.655.563-.096.112.652.813-.139.034.186-.816.142.072.411.731-.127.315 1.848-.731.125.081.474.913-.156.033.191-.913.156zm-.961-2.228l-.209.033.104.612.208-.034-.103-.611zm.134.8l-.208.036.115.674.208-.04-.115-.67zm.663-.94l-.235.043.104.614.236-.043-.105-.614zm.136.798l-.233.042.113.677.236-.04-.116-.679zM21.1.81l-.03-.181 1.696-.292.032.186L21.1.81zm2.22 3.679a12.883 12.883 0 0 0-.244-.67c-.491.388-.833.617-1.454.98l-.288-.688c.149-.026.289-.054.418-.077a9.589 9.589 0 0 0 .005-1.886l-.619.106-.029-.183 2.216-.381.031.182-.837.149a7.853 7.853 0 0 1-.581 1.969 9.363 9.363 0 0 0 1.054-.36 7.107 7.107 0 0 0-.425-.804l.13-.12c.44.393.737.759 1.133 1.294l-.51.489zm4.683-3.273l-.578 3.495-.605-.098.438-2.668c-.223.184-.471.36-.743.537l-.079-.139C27.208 1.629 27.593.909 27.931 0l.666.358a6.048 6.048 0 0 1-.594.858m2.035 3.923c-.231-.035-.456-.292-.665-.69-.263-.53-.443-1.333-.417-2.453l-.853-.029.012-.199.847.032c.02-.482.074-1.015.175-1.601l.658.109a12.415 12.415 0 0 0-.166 1.522l1.59.068-.011.195-1.579-.065c-.026.995.133 1.691.366 2.141.096.182.178.31.266.326.139.024.303-.215.595-.878l.152.109c-.297 1.073-.638 1.469-.97 1.413m.161-3.436A8.66 8.66 0 0 0 30.081.54l.147-.066c.245.267.428.518.658.905l-.687.324zm5.093 2.587L34.02 6.626l-.572-.316 1.021-1.868c-.424.047-.719.047-.719.047l-.032-.192s.974-.215 1.947-.915l.435.653a4.874 4.874 0 0 1-.808.255m-.783-1.055l-.029-.171s.8-.198 1.517-.759l.444.636c-.985.36-1.932.294-1.932.294m3.17 2.119l-.984 1.807c-.247.455-.486.657-.926.419-.183-.102-.398-.277-.667-.543l.093-.173c.167.146.294.241.395.3.236.124.33.009.517-.331l.982-1.801-1.129-.62.096-.177 2.388 1.302-.097.18-.668-.363zM36.79 3.34l.092-.171 1.984 1.088-.093.167L36.79 3.34zM4.091 32.355a.874.874 0 0 1 1.128.499.87.87 0 0 1-.5 1.127l-2.707 1.047-.198-.498 2.662-1.031c.244-.093.311-.271.242-.45-.068-.174-.236-.263-.483-.168l-2.659 1.03-.194-.499 2.709-1.057zM.608 30.72l-.095-.505 2.071-1.213-.002-.011-2.22.419-.096-.526 3.68-.693.092.497-2.06 1.221.002.013 2.215-.415.095.529zM.52 25.773l.009.617-.505.009-.023-1.777.506-.006.009.62 3.238-.041.007.535zM.183 22.14l.237-1.579.502.074-.16 1.053 1.09.163.134-.918.502.073-.137.915 1.087.166.157-1.048.531.078-.237 1.584zm.848-4.123l.164-.489 2.4-.046.003-.005-2.137-.727.171-.507 3.55 1.199-.164.479-2.395.056-.004.01 2.135.723-.172.508zm47.338-1.998l.266.752c.203.567-.029 1.009-.6 1.207l-1.649.587c-.658.23-1.086.006-1.296-.589l-.251-.704 3.53-1.253zm-2.875 1.59l.081.233c.101.284.279.339.58.233l1.703-.602c.277-.098.401-.248.295-.543l-.082-.236-2.577.915zm4.281 3.592l.069.443-3.58 1.39-.08-.534.773-.273-.112-.723-.82-.036-.079-.533 3.829.266zm-1.031.384v-.006l-1.385-.056.083.528 1.302-.466zm-2.398 3.6h3.748v.533h-3.748zm3.522 3.527l-.093.531-1.686-.3v.014l1.551 1.065-.095.533-1.35-.98-2.364.464.099-.561 1.743-.31-.485-.379-1.103-.197.093-.527zm-1.929 4.31c.568.218.688.759.53 1.166-.156.407-.608.729-1.178.514l-1.848-.711c-.568-.218-.687-.759-.528-1.166.153-.41.602-.732 1.178-.511l1.846.708zm-2.042-.209c-.239-.093-.412.022-.486.204-.067.183-.012.382.225.475l1.848.707c.242.095.416-.018.484-.205.072-.18.018-.378-.223-.472l-1.848-.709zM13.906 43.648l-.587-.4.089-.137c.185-.268.226-.57-.075-.777-.32-.223-.573-.01-.759.26-.219.316-.264.443-.043.775l.329.486c.38.547.257.945-.155 1.545-.476.691-1.078 1.029-1.839.51-.569-.396-.713-1.109-.333-1.66l.148-.221.589.404-.128.182c-.144.213-.174.506.128.705.396.273.588.055.843-.314.301-.439.297-.549.089-.857l-.306-.461c-.361-.553-.268-.979.088-1.494.422-.619 1.102-.889 1.774-.428.587.398.655 1.143.345 1.594l-.197.288zm3.729.225l.551.213-.73 5.043-.664-.258.186-1.076-.908-.338-.58.923-.664-.254 2.809-4.253zm-.227 1.447l-.016-.008-.969 1.557.666.258.319-1.807zm4.017-.324l.709.084-.279 2.25.014.005 1.311-2.125.707.084-1.207 1.86.778 3.099-.749-.095-.532-2.289-.471.67-.183 1.478-.705-.088zm7.608 3.847a1.154 1.154 0 1 1-2.29.265l-.448-3.826.708-.082.439 3.754c.041.352.248.496.499.461.251-.023.416-.213.374-.561l-.439-3.758.709-.086.448 3.833zm2.052-4.441L32.159 44c.788-.295 1.349.023 1.688.922.205.537.203.988-.133 1.383l1.517 1.848-.705.268-1.37-1.748-.398.15.75 1.982-.669.252-1.754-4.655zm1.453 1.828l.376-.143c.467-.176.438-.463.265-.926-.179-.469-.353-.697-.843-.508l-.346.127.548 1.45zm3.641-4.281l.488-.344 3.727 3.475-.587.404-.777-.764-.8.549.431 1.004-.589.398-1.893-4.722zm1.055 1.004l-.009.012.729 1.682.588-.402-1.308-1.292zm4.727-20.071c-.072-.5-1.99-1.646-2.187-2.25l-.006.003.006-.003c-.196-.608.682-2.658.446-3.106-1.058-2.035-5.95-3.269-8.208-1.752.745-2.615-1.94-6.885-4.201-7.267-.499-.083-2.18 1.389-2.817 1.389s-2.317-1.472-2.816-1.389c-1.944.326-4.218 3.53-4.318 6.086-.016.39.216.524.553.508.863-.04 1.697-.072 2.499-.151a44.312 44.312 0 0 1-.768-2.521l1.376-.552c.235 1.021.492 1.965.806 2.897a31.739 31.739 0 0 0 2.438-.422l.089.598c-.747.145-1.524.279-2.32.396.422 1.133.943 2.27 1.64 3.492l-1.188 1.281c-.59-.801-1.454-1.163-2.357-1.163-.151 0-.296.015-.443.028-.875.102-1.349.701-1.349 1.501 0 .901.64 1.662 2.184 1.773.118.015.237.015.354.015.709 0 1.494-.145 2.063-.39 0 0-.242 1.874-1.915 2.005-.199.02-.414 0-.63-.01-1.917-.103-3.076-1.4-3.076-3.031 0-1.312.894-2.329 2.241-2.461.166-.015.324-.028.482-.028.865 0 1.602.244 2.014.612a31.596 31.596 0 0 1-1.445-3.453c-.901.088-1.673.189-2.569.236-.181.009-.54-.015-1.039-.201-.502-.183-1.197-.434-2.018-.451-2.294-.053-4.962.986-5.708 2.425-.235.448.643 2.501.444 3.106-.195.605-2.114 1.75-2.187 2.25-.34 2.265 2.893 6.142 5.611 6.243-2.143 1.681-2.477 6.71-.871 8.345.353.361 2.577.16 3.093.535.517.373 1.013 2.555 1.466 2.773 1.948.973 6.277-.678 7.502-3.043.478-.951.638-1.348.738-2.126.021-.19.04-.373.04-.547 0-1.14-.52-1.87-1.378-1.87-.059 0-.116 0-.187.019-.777.103-1.8.831-2.596 2.521l-1.287-.278c.098-2.098.256-4.427.435-6.264l1.403.264a58.343 58.343 0 0 0-.345 4.777c.501-.861 1.573-1.578 2.398-1.703.267-.046.511-.061.748-.061 1.524 0 2.369.919 2.369 2.636 0 .22-.011.437-.04.688-.096.851-.465 1.509-.968 2.082-.364.41-.328.826-.016 1.117 1.783 1.645 4.936 2.578 6.517 1.789.452-.219.95-2.4 1.465-2.773.516-.375 2.737-.174 3.095-.535 1.603-1.635 1.268-6.665-.873-8.345 2.718-.102 5.951-3.979 5.611-6.244m-17.268 7.223c-1.25-.595-2.251-1.498-2.99-2.459l.13-.417c.955.417 1.877.752 3.256.787l-.396 2.089zm4.692.955c-.759-1.774-1.751-3.681-2.939-5.125-.336-.406-.533-.819-.533-1.266 0-.453.189-.931.61-1.501 1.094-1.455 1.907-2.926 2.617-4.672l1.325 1.41a27.488 27.488 0 0 1-3.44 3.921c-.264.245-.394.522-.394.782 0 .251.116.484.364.717 1.091 1.021 2.546 2.5 3.685 3.918l-1.295 1.816z" fill="#DD5928"/><path d="M61.744 23.573v6.59c0 2.408 2.72 2.476 6.92 2.476 2.807 0 5.616-.265 8.403-.554-.466 1.019-.751 1.948-.839 3.296h-9.686c-2.478 0-4.667-.178-6.324-2.146a13.225 13.225 0 0 1-2.389 1.814c.021.442.042.685-.29.685-.132 0-.286-.175-.373-.353l-1.482-2.92c1.173-.463 1.966-.906 2.83-1.436v-4.578h-2.146v-2.874h5.376zM58.052 15.7a25.088 25.088 0 0 1 3.204 3.142c-1.017.751-1.679 1.392-2.432 2.254a23.044 23.044 0 0 0-2.921-3.404l2.149-1.992zm12.446 5.683h4.822v6.768h-4.822v.618h5.818v2.189h-5.818v1.238h-2.807v-1.238h-5.373v-2.189h5.373v-.618h-4.82v-6.768h4.82v-.573h-3.736v-.818h-2.499v-4.135h14.86v4.135h-2.499v.818h-3.319v.573zm-2.807-3.296h-3.56v.71h3.56v-.71zm0 5.064h-1.969v.841h1.969v-.841zm0 2.368h-1.969v.862h1.969v-.862zm2.807-6.722h3.142v-.71h-3.142v.71zm0 5.196h1.969v-.841h-1.969v.841zm0 2.387h1.969v-.862h-1.969v.862zm14.48 3.407h3.384v2.432c.108-.023.53-.087.662-.11a59.32 59.32 0 0 0 1.703-6.989H88.67v-2.961h10.128v2.961h-4.245c-.023.288-.332.355-.576.399a86.096 86.096 0 0 1-1.771 5.882c.774-.221 2.235-.597 2.854-.818-.507-1.392-.885-2.21-1.217-3.008l2.876-1.171c.464.949 2.1 4.313 2.985 8.159-1.063.242-2.123.664-3.142 1.15-.222-.952-.42-1.636-.685-2.565-1.593.597-4.797 1.636-6.59 2.189-.044.463-.088.685-.332.685-.175 0-.309-.177-.353-.309l-1.173-3.252h-2.453v3.162h-2.434v-3.162h-3.716v-2.674h3.716v-.885h-3.338v-8.314h3.338v-.885h-3.716v-2.499h3.716V15.39l2.632.198c.088 0 .222.067.222.244 0 .198-.178.309-.42.463v.908h3.384v2.499h-3.384v.885h3.184v8.314h-3.184v.886zm-2.412-6.038v-.973h-.796v.973h.796zm-.796 1.88v.973h.797v-.973h-.797zm3.914-1.88v-.973h-.816v.973h.816zm-.817 1.88v.973h.816v-.973h-.816zm13.134-9.397v2.764H88.98v-2.764h9.021zm9.523 19.502h-3.428V25.629a9.08 9.08 0 0 1-1.217 1.459c-.597-1.083-2.1-2.277-2.344-2.475 3.427-3.474 5.066-7.74 5.55-9.356l3.163 1.15c.133.046.285.11.285.288 0 .355-.53.375-.659.375-.424 1.127-.756 1.835-1.525 3.384.285.134.53.244.53.486 0 .244-.203.355-.355.399v14.395zm10.723-15.302c-.705-1.634-2.079-3.25-2.186-3.404l2.54-1.66c.618.73 1.813 2.3 2.411 3.494a13.38 13.38 0 0 0-2.674 1.549l3.25-.375.374 3.183-6.786.797c.903 4.974 3.314 7.627 3.803 7.627.222 0 .374-.641.729-1.878.752.708 1.415 1.261 2.521 1.68-.442 1.881-.995 4.269-2.388 4.269-2.346 0-6.568-4.335-7.698-11.321l-3.821.442-.332-3.186 3.757-.463c-.152-1.77-.152-3.229-.11-5.928l3.098.201c.239.021.571.044.571.288 0 .265-.221.375-.461.486a28.18 28.18 0 0 0-.069 2.21c0 .221 0 1.282.069 2.388l3.402-.399zm14.305.908h11.672v3.028h-2.674v8.757c0 1.083 0 2.609-5.283 2.498-.022-.795-.354-2.298-1.106-3.36.374.044 1.766.178 1.969.178.396 0 .949-.023.949-.751v-7.321h-5.836v-2.365c-.069 0-.11.021-.202.044-.991 1.305-1.48 1.922-1.987 2.565.175.064.484.198.484.396 0 .11-.023.244-.263.398v10.215h-3.472v-7.737c-.6.551-.908.772-1.286 1.037-.553-.839-1.747-1.701-2.476-2.077 4.089-2.766 6.436-6.479 6.703-7.076l2.808 1.571zm-.996-4.578c.11.067.244.221.244.353 0 .332-.354.355-.553.355-2.015 2.1-3.472 3.317-5.353 4.555-.71-.996-1.945-1.812-2.498-2.1 1.701-.952 4.577-3.407 5.638-4.732l2.522 1.569zm11.897 2.1h-10.33v-3.029h10.33v3.029zm22.354-9.261c.493 2.563.949 3.829 1.613 5.442 4.882-2 6.602-3.335 7.551-4.073 1.088 1.475 2.563 3.125 3.513 4.179-2.563 1.826-5.762 3.195-8.813 4.529 2.037 3.478 5.688 8.007 7.827 9.658l-3.614 3.125c-2.669-1.932-6.601-2.669-9.339-2.669s-5.832.703-5.832 2.95c0 .913.913 3.58 7.307 3.58 3.126 0 5.232-.526 8.252-1.754.032 1.754.7 4.354 1.051 5.514-2.95.875-6.002 1.229-9.059 1.229-8.532 0-13.553-3.514-13.553-8.077 0-3.019 2.563-7.83 10.533-7.83 2.14 0 2.983.21 3.79.419-.664-1.017-1.227-1.932-2.526-4.283-5.37 1.616-10.428 2.072-12.184 2.248l-1.826-5.444c3.407-.104 7.371-.385 11.797-1.579-.42-.913-2.245-5.057-2.632-5.901l6.144-1.263zm38.865 2.81c.208.175.351.315.351.525 0 .316-.244.387-.419.387-.181 0-.388-.071-.6-.141-.701.666-6.426 5.126-7.62 6.145a304.028 304.028 0 0 0-4.882 4.213c-1.12 1.019-1.227 1.159-1.227 1.44 0 .351.139.457 1.508 1.229.105.069 3.338 2.213 6.495 4.635 3.969 3.054 5.656 4.845 7.27 6.883-1.406 1.263-2.526 2.457-4.038 4.738-1.544-2.281-7.339-8.392-17.697-15.097-.351-.212-1.193-.878-1.193-2.072 0-.913.143-1.334 3.688-4.145 4.845-3.792 9.376-7.936 13.378-12.605l4.986 3.865zm15.535 4.985c.249.071.53.141.53.457 0 .422-.424.456-.807.491-.844 1.581-1.793 3.653-2.318 6.076 3.125-2.141 7.195-3.266 10.252-3.266 6.039 0 8.989 4.46 8.989 8.639 0 6.707-6.32 11.305-17.941 11.305-1.019 0-1.899-.034-2.563-.068-.212-1.932-.493-2.879-1.65-5.901 1.194.281 2.421.527 5.195.527 7.971 0 11.133-2.984 11.133-5.935 0-1.016-.493-3.582-4.111-3.582-5.021 0-8.672 3.231-11.202 5.76l-5.021-1.825c1.02-6.004 2.074-9.833 3.688-14.537l5.826 1.859zm-1.927-8.217c1.227.175 6.634.984 11.797 3.898-1.337 1.862-2.213 3.372-3.162 5.126-2.946-2.07-7.233-3.616-10.465-4.317l1.83-4.707zm54.258 3.019v4.601h-8.288c3.093 3.688 5.619 5.442 9.132 7.655-1.688 1.581-2.355 2.354-3.162 3.863-3.721-2.072-8.777-7.058-10.814-9.411l2.913-2.107h-12.115l3.232 2.001c.387.247.562.353.562.634 0 .456-.599.419-.875.35-2.389 3.195-6.5 7.198-9.096 8.814-.53-.631-1.337-1.51-3.933-3.125 6.039-4.32 8.077-7.374 8.916-8.674h-7.934v-4.601h12.885v-3.02l5.619.247c.424.034.668.034.668.35s-.244.457-.668.631v1.791h12.958zm-18.96 10.361c.419 1.157 1.226 3.229 3.301 6.004.839-1.054 2.139-2.844 3.227-5.829l4.743 2.106c.176.069.526.244.526.632 0 .456-.738.421-1.02.421-.419.913-1.475 3.195-4.075 6.214 2.25 1.897 7.552 4.847 13.027 5.373-1.649 1.406-3.019 3.267-3.508 4.529-5.232-1.157-10.358-4.142-13.101-6.461-1.72 1.441-6.32 4.741-12.815 6.461-.771-2.106-3.264-4.214-3.407-4.354 6.883-1.475 10.502-3.932 12.783-5.617-2.069-2.563-3.476-5.723-4.107-7.129l4.426-2.35zm31.393.175v10.111c0 .844.176 1.791.982 2.741 1.088 1.229 2.388 1.229 5.863 1.229 10.289 0 12.046 0 17.209-.668-.918 1.546-1.476 3.337-1.476 4.776h-16.752c-3.688 0-6.283-.563-8.108-3.126-.987.879-2.494 2.179-3.758 3.126.032.141.069.315.069.528 0 .244-.037.596-.424.596-.244 0-.383-.211-.558-.527l-2.563-4.741c1.577-.701 3.02-1.369 4.315-2.316v-7.092h-3.02v-4.635h8.221zM279.314 9.46c2.25 1.369 4.394 3.195 6.007 4.951-.632.631-1.125 1.053-3.651 3.829-2.18-2.423-2.913-3.091-5.407-5.126l3.051-3.654zm15.103 21.385h-2.845v5.02h-4.707V17.746h4.813c-1.406-1.053-2.075-1.473-2.706-1.86l1.793-1.86h-3.9v-4.004h16.748l1.756 1.826c-.663.947-2.212 3.16-5.688 5.898h6.989V32.32c0 3.37-3.232 3.616-5.722 3.723-.105-1.476-.636-2.951-1.369-4.25a21.06 21.06 0 0 0 1.752.141c.632 0 .669-.069.669-1.088h-3.158v4.423h-4.425v-4.424zm0-9.446h-2.845v1.544h2.845v-1.544zm0 4.705h-2.845v1.546h2.845v-1.546zm-1.582-12.078c1.545 1.297 1.72 1.473 2.526 2.176a12.973 12.973 0 0 0 2.355-2.176h-4.881zm6.007 8.918H302V21.4h-3.158v1.544zm0 4.706H302v-1.546h-3.158v1.546z" fill="#0063B0"/></svg>