<?xml version="1.0" encoding="utf-8"?>
<!-- Generator: Adobe Illustrator 16.0.0, SVG Export Plug-In . SVG Version: 6.00 Build 0)  -->
<!DOCTYPE svg PUBLIC "-//W3C//DTD SVG 1.1//EN" "http://www.w3.org/Graphics/SVG/1.1/DTD/svg11.dtd">
<svg version="1.1" id="Layer_1" xmlns="http://www.w3.org/2000/svg" xmlns:xlink="http://www.w3.org/1999/xlink" x="0px" y="0px"
	 width="309.025px" height="50.253px" viewBox="0 0 309.025 50.253" enable-background="new 0 0 309.025 50.253"
	 xml:space="preserve">
<g>
	<g>
		<path fill="#DD5928" d="M8.414,8.893C8.277,8.675,7.976,8.961,7.865,8.905C7.754,8.852,7.782,8.44,7.525,8.471
			c-0.549,0.071-0.809,0.49-0.799,1.136c0.003,0.288,0.129,0.682,0.188,0.714c0.057,0.021-0.207-0.998,0.383-1.139
			c0.225-0.062,0.166,0.283,0.277,0.336s0.34-0.209,0.439,0.003c0.26,0.549-0.701,0.984-0.645,1.015
			c0.059,0.028,0.441-0.124,0.672-0.304C8.547,9.833,8.709,9.368,8.414,8.893"/>
		<path fill="#DD5928" d="M9.146,11.257L9.146,11.257c0.015-0.124,0.419-0.221,0.308-0.459c-0.236-0.5-0.719-0.618-1.328-0.412
			c-0.273,0.097-0.61,0.339-0.617,0.403c-0.008,0.062,0.883-0.506,1.201,0.009c0.124,0.199-0.22,0.25-0.236,0.371
			c-0.016,0.121,0.305,0.26,0.133,0.419c-0.439,0.416-1.151-0.357-1.161-0.298c-0.009,0.061,0.253,0.381,0.491,0.546
			c0.537,0.355,1.033,0.369,1.391-0.058C9.495,11.578,9.129,11.381,9.146,11.257"/>
		<path fill="#DD5928" d="M7.815,11.967c-0.175-0.235-0.511-0.479-0.57-0.468c-0.065,0.015,0.753,0.682,0.363,1.144
			c-0.153,0.179-0.305-0.131-0.43-0.109l0,0c-0.118,0.025-0.15,0.373-0.356,0.255C6.291,12.5,6.81,11.581,6.747,11.591
			c-0.061,0.012-0.286,0.363-0.365,0.641c-0.175,0.62-0.032,1.095,0.481,1.302c0.244,0.1,0.32-0.31,0.44-0.332
			c0.124-0.021,0.341,0.332,0.528,0.152C8.24,12.974,8.201,12.478,7.815,11.967"/>
		<path fill="#DD5928" d="M6.486,11.468c-0.031-0.053-0.416,0.928-0.978,0.698c-0.218-0.09,0.031-0.331-0.026-0.44l0,0
			c-0.059-0.106-0.398-0.026-0.357-0.261c0.116-0.596,1.15-0.388,1.119-0.438c-0.027-0.056-0.427-0.163-0.719-0.151
			c-0.645,0.024-1.051,0.303-1.09,0.862c-0.018,0.257,0.393,0.204,0.451,0.31c0.059,0.112-0.209,0.427,0.019,0.552
			c0.488,0.267,0.942,0.08,1.316-0.446C6.389,11.917,6.518,11.524,6.486,11.468"/>
		<path fill="#DD5928" d="M6.551,9.64C6.328,9.035,5.933,8.737,5.394,8.87C5.142,8.935,5.318,9.31,5.234,9.401l0,0
			C5.147,9.486,4.766,9.33,4.717,9.585c-0.104,0.544,0.217,0.921,0.831,1.111c0.276,0.088,0.692,0.088,0.735,0.04
			c0.043-0.046-1.009-0.107-0.967-0.713c0.016-0.234,0.323-0.069,0.41-0.161c0.084-0.09-0.096-0.388,0.135-0.419
			c0.603-0.076,0.724,0.975,0.77,0.928C6.675,10.331,6.651,9.912,6.551,9.64"/>
		<path fill="#DD5928" d="M45.335,9.684c-0.035-0.26-0.427-0.125-0.506-0.218c-0.08-0.095,0.119-0.462-0.129-0.534
			c-0.533-0.166-0.941,0.112-1.201,0.696c-0.115,0.268-0.162,0.684-0.121,0.732c0.043,0.042,0.222-0.992,0.819-0.881
			c0.231,0.043,0.033,0.329,0.116,0.427c0.077,0.088,0.395-0.053,0.398,0.183c0.006,0.608-1.051,0.608-1.008,0.654
			c0.04,0.047,0.453,0.075,0.736,0.004C45.066,10.593,45.407,10.233,45.335,9.684"/>
		<path fill="#DD5928" d="M45.019,12.136L45.019,12.136c0.068-0.102,0.478-0.028,0.473-0.288c-0.006-0.558-0.396-0.862-1.036-0.922
			c-0.289-0.031-0.696,0.055-0.729,0.108c-0.036,0.056,1.009-0.095,1.089,0.508c0.032,0.23-0.304,0.13-0.369,0.237
			c-0.064,0.104,0.171,0.363-0.05,0.438c-0.576,0.192-0.906-0.809-0.936-0.756c-0.037,0.055,0.067,0.453,0.224,0.7
			c0.338,0.549,0.787,0.76,1.289,0.522C45.205,12.571,44.957,12.245,45.019,12.136"/>
		<path fill="#DD5928" d="M43.52,12.231c-0.062-0.289-0.267-0.646-0.326-0.664c-0.063-0.012,0.4,0.936-0.146,1.195
			c-0.212,0.104-0.226-0.245-0.342-0.271l0,0c-0.118-0.033-0.289,0.271-0.434,0.08c-0.357-0.482,0.489-1.105,0.431-1.119
			c-0.063-0.021-0.41,0.207-0.6,0.43c-0.413,0.488-0.478,0.983-0.097,1.384c0.18,0.192,0.419-0.152,0.537-0.121
			c0.119,0.028,0.171,0.441,0.419,0.355C43.487,13.324,43.658,12.857,43.52,12.231"/>
		<path fill="#DD5928" d="M42.515,11.231c-0.005-0.065-0.763,0.67-1.18,0.23c-0.159-0.171,0.166-0.289,0.157-0.413l0,0
			c-0.011-0.123-0.349-0.192-0.213-0.384c0.352-0.494,1.203,0.125,1.198,0.059c-0.003-0.062-0.324-0.326-0.593-0.434
			c-0.597-0.242-1.087-0.153-1.35,0.334c-0.124,0.231,0.271,0.354,0.279,0.475c0.012,0.127-0.364,0.298-0.208,0.51
			c0.333,0.443,0.826,0.464,1.381,0.132C42.241,11.597,42.521,11.29,42.515,11.231"/>
		<path fill="#DD5928" d="M43.329,9.588c0.046-0.639-0.19-1.073-0.736-1.175c-0.255-0.049-0.249,0.363-0.36,0.41l0,0
			c-0.116,0.046-0.401-0.258-0.552-0.042c-0.318,0.451-0.183,0.933,0.295,1.357c0.221,0.192,0.6,0.366,0.657,0.342
			c0.056-0.028-0.878-0.516-0.588-1.054c0.114-0.207,0.328,0.073,0.438,0.027c0.115-0.05,0.077-0.396,0.301-0.328
			c0.58,0.183,0.256,1.188,0.313,1.163C43.158,10.266,43.307,9.879,43.329,9.588"/>
		<path fill="#DD5928" d="M7.846,37.102c-0.191-0.176-0.406,0.177-0.529,0.156c-0.121-0.02-0.197-0.434-0.438-0.332
			c-0.515,0.211-0.654,0.687-0.479,1.306c0.084,0.281,0.311,0.625,0.373,0.641c0.058,0.01-0.465-0.908,0.066-1.205
			c0.205-0.111,0.238,0.234,0.356,0.258c0.12,0.018,0.275-0.295,0.427-0.113c0.395,0.457-0.417,1.135-0.354,1.146
			c0.063,0.01,0.396-0.232,0.569-0.469C8.219,37.972,8.253,37.48,7.846,37.102"/>
		<path fill="#DD5928" d="M9.169,39.185L9.169,39.185c-0.015-0.117,0.347-0.324,0.179-0.516c-0.361-0.428-0.854-0.414-1.388-0.053
			c-0.243,0.166-0.501,0.486-0.493,0.549c0.012,0.066,0.719-0.719,1.164-0.305c0.173,0.162-0.148,0.299-0.131,0.414
			c0.018,0.125,0.361,0.174,0.238,0.373c-0.32,0.52-1.21-0.043-1.201,0.02c0.008,0.063,0.342,0.301,0.621,0.393
			c0.611,0.209,1.092,0.086,1.322-0.418C9.594,39.404,9.188,39.31,9.169,39.185"/>
		<path fill="#DD5928" d="M8.073,40.222c-0.229-0.184-0.616-0.326-0.674-0.303c-0.054,0.031,0.907,0.461,0.652,1.014
			c-0.101,0.213-0.329-0.051-0.438,0.002l0,0c-0.111,0.055-0.049,0.402-0.278,0.346c-0.591-0.143-0.331-1.162-0.39-1.139
			c-0.057,0.025-0.181,0.422-0.186,0.713c-0.007,0.646,0.26,1.063,0.812,1.129c0.26,0.031,0.226-0.385,0.336-0.438
			c0.11-0.051,0.412,0.229,0.55,0.006C8.748,41.083,8.582,40.617,8.073,40.222"/>
		<path fill="#DD5928" d="M6.662,40.085c-0.043-0.039-0.156,1.01-0.76,0.938c-0.234-0.033-0.057-0.33-0.143-0.418l0,0
			c-0.086-0.086-0.392,0.076-0.41-0.16c-0.049-0.604,1.008-0.672,0.962-0.717c-0.042-0.049-0.459-0.043-0.735,0.045
			c-0.611,0.191-0.928,0.57-0.821,1.119c0.05,0.25,0.431,0.094,0.517,0.182c0.084,0.09-0.09,0.467,0.164,0.525
			c0.538,0.133,0.932-0.174,1.15-0.779C6.687,40.552,6.707,40.132,6.662,40.085"/>
		<path fill="#DD5928" d="M6.24,38.308c-0.371-0.521-0.833-0.709-1.318-0.436c-0.226,0.125,0.043,0.441-0.016,0.551l0,0
			c-0.058,0.107-0.467,0.057-0.448,0.316c0.044,0.553,0.451,0.836,1.095,0.859c0.293,0.006,0.69-0.104,0.721-0.16
			c0.027-0.057-1.002,0.166-1.121-0.434c-0.047-0.229,0.293-0.154,0.354-0.262c0.059-0.111-0.192-0.35,0.021-0.441
			c0.561-0.234,0.952,0.748,0.984,0.691C6.543,38.939,6.411,38.546,6.24,38.308"/>
		<path fill="#DD5928" d="M43.021,36.932c-0.249-0.074-0.292,0.332-0.411,0.363c-0.117,0.031-0.365-0.302-0.54-0.107
			c-0.372,0.408-0.297,0.9,0.127,1.385c0.195,0.215,0.547,0.434,0.606,0.418c0.063-0.018-0.804-0.621-0.45-1.113
			c0.137-0.193,0.314,0.105,0.436,0.072c0.114-0.027,0.12-0.377,0.335-0.281c0.55,0.252,0.105,1.205,0.169,1.188
			c0.063-0.012,0.257-0.377,0.313-0.664C43.729,37.56,43.549,37.102,43.021,36.932"/>
		<path fill="#DD5928" d="M45.11,38.253L45.11,38.253c-0.067-0.102,0.174-0.438-0.062-0.549c-0.508-0.225-0.948,0-1.278,0.551
			c-0.15,0.248-0.242,0.652-0.21,0.703c0.036,0.057,0.34-0.957,0.921-0.771c0.225,0.068-0.007,0.33,0.061,0.436
			c0.066,0.104,0.398-0.004,0.374,0.232c-0.065,0.602-1.113,0.48-1.079,0.525c0.034,0.057,0.441,0.129,0.729,0.098
			c0.64-0.078,1.023-0.393,1.021-0.947C45.583,38.269,45.177,38.355,45.11,38.253"/>
		<path fill="#DD5928" d="M44.559,39.658c-0.283-0.066-0.696-0.033-0.736,0.014c-0.04,0.051,1.014,0.025,1.019,0.635
			c0.001,0.232-0.314,0.104-0.395,0.195l0,0c-0.076,0.096,0.124,0.379-0.106,0.428c-0.593,0.123-0.794-0.912-0.835-0.863
			c-0.04,0.047,0.015,0.457,0.136,0.723c0.271,0.584,0.688,0.848,1.213,0.674c0.248-0.08,0.045-0.439,0.121-0.535
			c0.077-0.096,0.471,0.031,0.499-0.229C45.537,40.146,45.185,39.794,44.559,39.658"/>
		<path fill="#DD5928" d="M43.226,40.142c-0.058-0.023,0.288,0.971-0.29,1.162c-0.224,0.078-0.189-0.271-0.303-0.318l0,0
			c-0.117-0.041-0.325,0.244-0.441,0.037c-0.3-0.527,0.623-1.043,0.563-1.064c-0.061-0.02-0.433,0.16-0.649,0.354
			c-0.469,0.438-0.593,0.918-0.266,1.367c0.155,0.209,0.432-0.098,0.546-0.059c0.118,0.045,0.121,0.461,0.375,0.41
			c0.543-0.117,0.771-0.557,0.712-1.195C43.444,40.544,43.282,40.166,43.226,40.142"/>
		<path fill="#DD5928" d="M42.085,38.707c-0.561-0.309-1.057-0.283-1.38,0.17c-0.148,0.209,0.231,0.383,0.223,0.504
			c-0.009,0.123-0.399,0.25-0.27,0.479c0.272,0.484,0.763,0.557,1.354,0.307c0.264-0.111,0.583-0.387,0.584-0.449
			c0.003-0.059-0.838,0.574-1.198,0.086c-0.139-0.186,0.2-0.268,0.207-0.389c0.006-0.121-0.325-0.23-0.166-0.406
			c0.41-0.449,1.181,0.268,1.184,0.201C42.625,39.15,42.339,38.851,42.085,38.707"/>
		<path fill="#DD5928" d="M11.943,5.047c-0.275-0.263-0.563-0.474-0.818-0.608l0.049-0.176c0.313-0.003,0.67,0.007,1.043,0.085
			L11.943,5.047z M17.002,6.029c-0.182,0.117-0.425,0.264-0.713,0.423c-0.311,0.174-0.669,0.359-1.051,0.552
			c-0.498,0.252-1.104,0.368-1.634,0.009c-0.044,0.252-0.139,0.744-0.245,1.116l-0.641-0.424c0.21-0.202,0.396-0.477,0.396-0.477
			l-0.888-1.603l-0.383,0.209l-0.093-0.171l0.938-0.517l0.91,1.647c0.449,0.154,0.819,0.044,1.377-0.264
			c0.485-0.27,1.366-0.813,1.835-1.197L17.002,6.029z M14.8,3.229L14.672,3.22c-0.031-0.254-0.086-0.463-0.186-0.646l-1.813,1.003
			l0.283,0.511l-0.502,0.274L12.08,3.687l2.824-1.562l0.188,0.34C15.072,2.725,14.973,2.884,14.8,3.229 M15.264,5.57l0.277,0.504
			l-0.502,0.278L14.762,5.85l-1.163,0.644l-0.093-0.166l1.165-0.645l-0.173-0.311L13.633,5.85L12.91,4.548l0.866-0.482l-0.144-0.261
			l-0.539,0.298l-0.092-0.165l0.537-0.295l-0.168-0.308l0.502-0.277l0.168,0.305l0.509-0.28l0.091,0.164l-0.508,0.282l0.147,0.26
			l0.881-0.489l0.722,1.306l-0.881,0.49l0.172,0.311l1.218-0.676l0.093,0.167L15.264,5.57z M13.866,4.231l-0.387,0.217l0.21,0.376
			l0.387-0.211L13.866,4.231z M14.169,4.779l-0.386,0.209l0.235,0.431l0.389-0.212L14.169,4.779z M14.776,3.729L14.37,3.954
			l0.209,0.379l0.404-0.228L14.776,3.729z M15.075,4.274l-0.404,0.224l0.237,0.425l0.404-0.224L15.075,4.274z"/>
		<path fill="#DD5928" d="M20.553,4.135l0.155,0.906l-0.565,0.094l-0.155-0.908L19.085,4.38L19.05,4.197l0.903-0.153l-0.078-0.48
			l-0.707,0.123l-0.314-1.848l0.706-0.125l-0.071-0.406l-0.819,0.142l-0.036-0.188l0.824-0.139l-0.112-0.655l0.563-0.096
			l0.112,0.652l0.813-0.139l0.034,0.186l-0.816,0.142l0.072,0.411l0.731-0.127l0.315,1.848L20.439,3.47l0.081,0.474l0.913-0.156
			l0.033,0.191L20.553,4.135z M19.592,1.907l-0.209,0.033l0.104,0.612l0.208-0.034L19.592,1.907z M19.726,2.707l-0.208,0.036
			l0.115,0.674l0.208-0.04L19.726,2.707z M20.389,1.767L20.154,1.81l0.104,0.614l0.236-0.043L20.389,1.767z M20.525,2.565
			l-0.233,0.042l0.113,0.677l0.236-0.04L20.525,2.565z M21.1,0.81L21.07,0.629l1.696-0.292l0.032,0.186L21.1,0.81z M23.32,4.489
			c-0.087-0.261-0.166-0.472-0.244-0.67c-0.491,0.388-0.833,0.617-1.454,0.98l-0.288-0.688c0.149-0.026,0.289-0.054,0.418-0.077
			c0.066-0.707,0.063-1.292,0.005-1.886l-0.619,0.106l-0.029-0.183l2.216-0.381l0.031,0.182l-0.837,0.149
			c-0.114,0.69-0.271,1.249-0.581,1.969c0.372-0.101,0.687-0.214,1.054-0.36c-0.13-0.296-0.268-0.54-0.425-0.804l0.13-0.12
			c0.44,0.393,0.737,0.759,1.133,1.294L23.32,4.489z"/>
		<path fill="#DD5928" d="M28.003,1.216l-0.578,3.495l-0.605-0.098l0.438-2.668c-0.223,0.184-0.471,0.36-0.743,0.537l-0.079-0.139
			C27.208,1.629,27.593,0.909,27.931,0l0.666,0.358C28.41,0.685,28.216,0.957,28.003,1.216 M30.038,5.139
			c-0.231-0.035-0.456-0.292-0.665-0.69c-0.263-0.53-0.443-1.333-0.417-2.453l-0.853-0.029l0.012-0.199L28.962,1.8
			c0.02-0.482,0.074-1.015,0.175-1.601l0.658,0.109C29.7,0.872,29.648,1.384,29.629,1.83l1.59,0.068l-0.011,0.195l-1.579-0.065
			c-0.026,0.995,0.133,1.691,0.366,2.141c0.096,0.182,0.178,0.31,0.266,0.326c0.139,0.024,0.303-0.215,0.595-0.878l0.152,0.109
			C30.711,4.799,30.37,5.195,30.038,5.139 M30.199,1.703c-0.02-0.419-0.057-0.859-0.118-1.163l0.147-0.066
			c0.245,0.267,0.428,0.518,0.658,0.905L30.199,1.703z"/>
		<path fill="#DD5928" d="M35.292,4.29L34.02,6.626l-0.572-0.316l1.021-1.868c-0.424,0.047-0.719,0.047-0.719,0.047l-0.032-0.192
			c0,0,0.974-0.215,1.947-0.915L36.1,4.035C35.834,4.147,35.563,4.228,35.292,4.29 M34.509,3.235L34.48,3.064
			c0,0,0.8-0.198,1.517-0.759l0.444,0.636C35.456,3.301,34.509,3.235,34.509,3.235 M37.679,5.354l-0.984,1.807
			c-0.247,0.455-0.486,0.657-0.926,0.419c-0.183-0.102-0.398-0.277-0.667-0.543l0.093-0.173c0.167,0.146,0.294,0.241,0.395,0.3
			c0.236,0.124,0.33,0.009,0.517-0.331l0.982-1.801l-1.129-0.62l0.096-0.177l2.388,1.302l-0.097,0.18L37.679,5.354z M36.79,3.34
			l0.092-0.171l1.984,1.088l-0.093,0.167L36.79,3.34z"/>
		<path fill="#DD5928" d="M4.091,32.355c0.458-0.17,0.956,0.053,1.128,0.499c0.174,0.445-0.045,0.95-0.5,1.127l-2.707,1.047
			L1.814,34.53l2.662-1.031c0.244-0.093,0.311-0.271,0.242-0.45c-0.068-0.174-0.236-0.263-0.483-0.168l-2.659,1.03l-0.194-0.499
			L4.091,32.355z"/>
		<polygon fill="#DD5928" points="0.608,30.72 0.513,30.215 2.584,29.002 2.582,28.991 0.362,29.41 0.266,28.884 3.946,28.191 
			4.038,28.688 1.978,29.909 1.98,29.922 4.195,29.507 4.29,30.036 		"/>
		<polygon fill="#DD5928" points="0.52,25.773 0.529,26.39 0.024,26.399 0.001,24.622 0.507,24.616 0.516,25.236 3.754,25.195 
			3.761,25.73 		"/>
		<polygon fill="#DD5928" points="0.183,22.14 0.42,20.561 0.922,20.635 0.762,21.688 1.852,21.851 1.986,20.933 2.488,21.006 
			2.351,21.921 3.438,22.087 3.595,21.039 4.126,21.117 3.889,22.701 		"/>
		<polygon fill="#DD5928" points="1.031,18.017 1.195,17.528 3.595,17.482 3.598,17.477 1.461,16.75 1.632,16.243 5.182,17.442 
			5.018,17.921 2.623,17.977 2.619,17.987 4.754,18.71 4.582,19.218 		"/>
		<path fill="#DD5928" d="M48.369,16.019l0.266,0.752c0.203,0.567-0.029,1.009-0.6,1.207l-1.649,0.587
			c-0.658,0.23-1.086,0.006-1.296-0.589l-0.251-0.704L48.369,16.019z M45.494,17.609l0.081,0.233
			c0.101,0.284,0.279,0.339,0.58,0.233l1.703-0.602c0.277-0.098,0.401-0.248,0.295-0.543l-0.082-0.236L45.494,17.609z"/>
		<path fill="#DD5928" d="M49.775,21.201l0.069,0.443l-3.58,1.39l-0.08-0.534l0.773-0.273l-0.112-0.723l-0.82-0.036l-0.079-0.533
			L49.775,21.201z M48.744,21.585v-0.006l-1.385-0.056l0.083,0.528L48.744,21.585z"/>
		<rect x="46.346" y="25.185" fill="#DD5928" width="3.748" height="0.533"/>
		<polygon fill="#DD5928" points="49.868,28.712 49.775,29.243 48.089,28.943 48.089,28.957 49.64,30.022 49.545,30.555 
			48.195,29.575 45.831,30.039 45.93,29.478 47.673,29.168 47.188,28.789 46.085,28.592 46.178,28.065 		"/>
		<path fill="#DD5928" d="M47.939,33.022c0.568,0.218,0.688,0.759,0.53,1.166c-0.156,0.407-0.608,0.729-1.178,0.514l-1.848-0.711
			c-0.568-0.218-0.687-0.759-0.528-1.166c0.153-0.41,0.602-0.732,1.178-0.511L47.939,33.022z M45.897,32.813
			c-0.239-0.093-0.412,0.022-0.486,0.204c-0.067,0.183-0.012,0.382,0.225,0.475l1.848,0.707c0.242,0.095,0.416-0.018,0.484-0.205
			c0.072-0.18,0.018-0.378-0.223-0.472L45.897,32.813z"/>
		<path fill="#DD5928" d="M13.906,43.648l-0.587-0.4l0.089-0.137c0.185-0.268,0.226-0.57-0.075-0.777
			c-0.32-0.223-0.573-0.01-0.759,0.26c-0.219,0.316-0.264,0.443-0.043,0.775l0.329,0.486c0.38,0.547,0.257,0.945-0.155,1.545
			c-0.476,0.691-1.078,1.029-1.839,0.51c-0.569-0.396-0.713-1.109-0.333-1.66l0.148-0.221l0.589,0.404l-0.128,0.182
			c-0.144,0.213-0.174,0.506,0.128,0.705c0.396,0.273,0.588,0.055,0.843-0.314c0.301-0.439,0.297-0.549,0.089-0.857l-0.306-0.461
			c-0.361-0.553-0.268-0.979,0.088-1.494c0.422-0.619,1.102-0.889,1.774-0.428c0.587,0.398,0.655,1.143,0.345,1.594L13.906,43.648z"
			/>
		<path fill="#DD5928" d="M17.635,43.873l0.551,0.213l-0.73,5.043l-0.664-0.258l0.186-1.076l-0.908-0.338L15.49,48.38l-0.664-0.254
			L17.635,43.873z M17.408,45.32l-0.016-0.008l-0.969,1.557l0.666,0.258L17.408,45.32z"/>
		<polygon fill="#DD5928" points="21.425,44.996 22.134,45.08 21.855,47.33 21.869,47.335 23.18,45.21 23.887,45.294 22.68,47.154 
			23.458,50.253 22.709,50.158 22.177,47.869 21.706,48.539 21.523,50.017 20.818,49.929 		"/>
		<path fill="#DD5928" d="M29.033,48.843c0.073,0.645-0.381,1.211-1.01,1.285c-0.632,0.072-1.204-0.373-1.28-1.02l-0.448-3.826
			l0.708-0.082l0.439,3.754c0.041,0.352,0.248,0.496,0.499,0.461c0.251-0.023,0.416-0.213,0.374-0.561l-0.439-3.758l0.709-0.086
			L29.033,48.843z"/>
		<path fill="#DD5928" d="M31.085,44.402L32.159,44c0.788-0.295,1.349,0.023,1.688,0.922c0.205,0.537,0.203,0.988-0.133,1.383
			l1.517,1.848l-0.705,0.268l-1.37-1.748l-0.398,0.15l0.75,1.982l-0.669,0.252L31.085,44.402z M32.538,46.23l0.376-0.143
			c0.467-0.176,0.438-0.463,0.265-0.926c-0.179-0.469-0.353-0.697-0.843-0.508l-0.346,0.127L32.538,46.23z"/>
		<path fill="#DD5928" d="M36.179,41.949l0.488-0.344l3.727,3.475l-0.587,0.404L39.03,44.72l-0.8,0.549l0.431,1.004l-0.589,0.398
			L36.179,41.949z M37.234,42.953l-0.009,0.012l0.729,1.682l0.588-0.402L37.234,42.953z"/>
		<path fill="#DD5928" d="M41.961,22.882c-0.072-0.5-1.99-1.646-2.187-2.25l-0.006,0.003l0.006-0.003
			c-0.196-0.608,0.682-2.658,0.446-3.106c-1.058-2.035-5.95-3.269-8.208-1.752c0.745-2.615-1.94-6.885-4.201-7.267
			c-0.499-0.083-2.18,1.389-2.817,1.389c-0.637,0-2.317-1.472-2.816-1.389c-1.944,0.326-4.218,3.53-4.318,6.086
			c-0.016,0.39,0.216,0.524,0.553,0.508c0.863-0.04,1.697-0.072,2.499-0.151c-0.276-0.814-0.532-1.659-0.768-2.521l1.376-0.552
			c0.235,1.021,0.492,1.965,0.806,2.897c0.836-0.117,1.644-0.247,2.438-0.422l0.089,0.598c-0.747,0.145-1.524,0.279-2.32,0.396
			c0.422,1.133,0.943,2.27,1.64,3.492l-1.188,1.281c-0.59-0.801-1.454-1.163-2.357-1.163c-0.151,0-0.296,0.015-0.443,0.028
			c-0.875,0.102-1.349,0.701-1.349,1.501c0,0.901,0.64,1.662,2.184,1.773c0.118,0.015,0.237,0.015,0.354,0.015
			c0.709,0,1.494-0.145,2.063-0.39c0,0-0.242,1.874-1.915,2.005c-0.199,0.02-0.414,0-0.63-0.01c-1.917-0.103-3.076-1.4-3.076-3.031
			c0-1.312,0.894-2.329,2.241-2.461c0.166-0.015,0.324-0.028,0.482-0.028c0.865,0,1.602,0.244,2.014,0.612
			c-0.503-1.006-0.992-2.184-1.445-3.453c-0.901,0.088-1.673,0.189-2.569,0.236c-0.181,0.009-0.54-0.015-1.039-0.201
			c-0.502-0.183-1.197-0.434-2.018-0.451c-2.294-0.053-4.962,0.986-5.708,2.425c-0.235,0.448,0.643,2.501,0.444,3.106
			c-0.195,0.605-2.114,1.75-2.187,2.25c-0.34,2.265,2.893,6.142,5.611,6.243c-2.143,1.681-2.477,6.71-0.871,8.345
			c0.353,0.361,2.577,0.16,3.093,0.535c0.517,0.373,1.013,2.555,1.466,2.773c1.948,0.973,6.277-0.678,7.502-3.043
			c0.478-0.951,0.638-1.348,0.738-2.126c0.021-0.19,0.04-0.373,0.04-0.547c0-1.14-0.52-1.87-1.378-1.87
			c-0.059,0-0.116,0-0.187,0.019c-0.777,0.103-1.8,0.831-2.596,2.521l-1.287-0.278c0.098-2.098,0.256-4.427,0.435-6.264L22,29.454
			c-0.196,1.729-0.316,3.552-0.345,4.777c0.501-0.861,1.573-1.578,2.398-1.703c0.267-0.046,0.511-0.061,0.748-0.061
			c1.524,0,2.369,0.919,2.369,2.636c0,0.22-0.011,0.437-0.04,0.688c-0.096,0.851-0.465,1.509-0.968,2.082
			c-0.364,0.41-0.328,0.826-0.016,1.117c1.783,1.645,4.936,2.578,6.517,1.789c0.452-0.219,0.95-2.4,1.465-2.773
			c0.516-0.375,2.737-0.174,3.095-0.535c1.603-1.635,1.268-6.665-0.873-8.345C39.068,29.024,42.301,25.147,41.961,22.882
			 M24.693,30.105c-1.25-0.595-2.251-1.498-2.99-2.459l0.13-0.417c0.955,0.417,1.877,0.752,3.256,0.787L24.693,30.105z
			 M29.385,31.06c-0.759-1.774-1.751-3.681-2.939-5.125c-0.336-0.406-0.533-0.819-0.533-1.266c0-0.453,0.189-0.931,0.61-1.501
			c1.094-1.455,1.907-2.926,2.617-4.672l1.325,1.41c-0.952,1.327-2.102,2.655-3.44,3.921c-0.264,0.245-0.394,0.522-0.394,0.782
			c0,0.251,0.116,0.484,0.364,0.717c1.091,1.021,2.546,2.5,3.685,3.918L29.385,31.06z"/>
	</g>
</g>
<g>
	<g>
		<path fill="#0063B0" d="M61.744,23.573v6.59c0,2.408,2.72,2.476,6.92,2.476c2.807,0,5.616-0.265,8.403-0.554
			c-0.466,1.019-0.751,1.948-0.839,3.296h-9.686c-2.478,0-4.667-0.178-6.324-2.146c-0.443,0.419-1.174,1.083-2.389,1.814
			c0.021,0.442,0.042,0.685-0.29,0.685c-0.132,0-0.286-0.175-0.373-0.353l-1.482-2.92c1.173-0.463,1.966-0.906,2.83-1.436v-4.578
			h-2.146v-2.874H61.744z M58.052,15.7c1.194,0.996,2.098,1.857,3.204,3.142c-1.017,0.751-1.679,1.392-2.432,2.254
			c-1.063-1.502-1.989-2.499-2.921-3.404L58.052,15.7z M70.498,21.383h4.822v6.768h-4.822v0.618h5.818v2.189h-5.818v1.238h-2.807
			v-1.238h-5.373v-2.189h5.373v-0.618h-4.82v-6.768h4.82V20.81h-3.736v-0.818h-2.499v-4.135h14.86v4.135h-2.499v0.818h-3.319V21.383
			z M67.691,18.087h-3.56v0.71h3.56V18.087z M67.691,23.151h-1.969v0.841h1.969V23.151z M67.691,25.519h-1.969v0.862h1.969V25.519z
			 M70.498,18.797h3.142v-0.71h-3.142V18.797z M70.498,23.993h1.969v-0.841h-1.969V23.993z M70.498,26.38h1.969v-0.862h-1.969V26.38
			z"/>
		<path fill="#0063B0" d="M84.978,29.787h3.384v2.432c0.108-0.023,0.53-0.087,0.662-0.11c0.817-2.609,1.371-5.151,1.703-6.989H88.67
			v-2.961h10.128v2.961h-4.245c-0.023,0.288-0.332,0.355-0.576,0.399c-0.664,2.565-1.549,5.262-1.771,5.882
			c0.774-0.221,2.235-0.597,2.854-0.818c-0.507-1.392-0.885-2.21-1.217-3.008l2.876-1.171c0.464,0.949,2.1,4.313,2.985,8.159
			c-1.063,0.242-2.123,0.664-3.142,1.15c-0.222-0.952-0.42-1.636-0.685-2.565c-1.593,0.597-4.797,1.636-6.59,2.189
			c-0.044,0.463-0.088,0.685-0.332,0.685c-0.175,0-0.309-0.177-0.353-0.309l-1.173-3.252h-2.453v3.162h-2.434v-3.162h-3.716v-2.674
			h3.716v-0.885h-3.338v-8.314h3.338v-0.885h-3.716v-2.499h3.716v-1.814l2.632,0.198c0.088,0,0.222,0.067,0.222,0.244
			c0,0.198-0.178,0.309-0.42,0.463v0.908h3.384v2.499h-3.384v0.885h3.184v8.314h-3.184V29.787z M82.566,23.749v-0.973H81.77v0.973
			H82.566z M81.77,25.629v0.973h0.797v-0.973H81.77z M85.684,23.749v-0.973h-0.816v0.973H85.684z M84.867,25.629v0.973h0.816v-0.973
			H84.867z M98.001,16.232v2.764h-9.021v-2.764H98.001z"/>
		<path fill="#0063B0" d="M107.524,35.734h-3.428V25.629c-0.375,0.553-0.817,1.083-1.217,1.459c-0.597-1.083-2.1-2.277-2.344-2.475
			c3.427-3.474,5.066-7.74,5.55-9.356l3.163,1.15c0.133,0.046,0.285,0.11,0.285,0.288c0,0.355-0.53,0.375-0.659,0.375
			c-0.424,1.127-0.756,1.835-1.525,3.384c0.285,0.134,0.53,0.244,0.53,0.486c0,0.244-0.203,0.355-0.355,0.399V35.734z
			 M118.247,20.432c-0.705-1.634-2.079-3.25-2.186-3.404l2.54-1.66c0.618,0.73,1.813,2.3,2.411,3.494
			c-0.641,0.288-1.461,0.664-2.674,1.549l3.25-0.375l0.374,3.183l-6.786,0.797c0.903,4.974,3.314,7.627,3.803,7.627
			c0.222,0,0.374-0.641,0.729-1.878c0.752,0.708,1.415,1.261,2.521,1.68c-0.442,1.881-0.995,4.269-2.388,4.269
			c-2.346,0-6.568-4.335-7.698-11.321l-3.821,0.442l-0.332-3.186l3.757-0.463c-0.152-1.77-0.152-3.229-0.11-5.928l3.098,0.201
			c0.239,0.021,0.571,0.044,0.571,0.288c0,0.265-0.221,0.375-0.461,0.486c-0.046,0.685-0.069,1.171-0.069,2.21
			c0,0.221,0,1.282,0.069,2.388L118.247,20.432z"/>
		<path fill="#0063B0" d="M132.552,21.34h11.672v3.028h-2.674v8.757c0,1.083,0,2.609-5.283,2.498
			c-0.022-0.795-0.354-2.298-1.106-3.36c0.374,0.044,1.766,0.178,1.969,0.178c0.396,0,0.949-0.023,0.949-0.751v-7.321h-5.836v-2.365
			c-0.069,0-0.11,0.021-0.202,0.044c-0.991,1.305-1.48,1.922-1.987,2.565c0.175,0.064,0.484,0.198,0.484,0.396
			c0,0.11-0.023,0.244-0.263,0.398v10.215h-3.472v-7.737c-0.6,0.551-0.908,0.772-1.286,1.037c-0.553-0.839-1.747-1.701-2.476-2.077
			c4.089-2.766,6.436-6.479,6.703-7.076L132.552,21.34z M131.556,16.762c0.11,0.067,0.244,0.221,0.244,0.353
			c0,0.332-0.354,0.355-0.553,0.355c-2.015,2.1-3.472,3.317-5.353,4.555c-0.71-0.996-1.945-1.812-2.498-2.1
			c1.701-0.952,4.577-3.407,5.638-4.732L131.556,16.762z M143.453,18.862h-10.33v-3.029h10.33V18.862z"/>
		<path fill="#0063B0" d="M165.807,9.601c0.493,2.563,0.949,3.829,1.613,5.442c4.882-2,6.602-3.335,7.551-4.073
			c1.088,1.475,2.563,3.125,3.513,4.179c-2.563,1.826-5.762,3.195-8.813,4.529c2.037,3.478,5.688,8.007,7.827,9.658l-3.614,3.125
			c-2.669-1.932-6.601-2.669-9.339-2.669s-5.832,0.703-5.832,2.95c0,0.913,0.913,3.58,7.307,3.58c3.126,0,5.232-0.526,8.252-1.754
			c0.032,1.754,0.7,4.354,1.051,5.514c-2.95,0.875-6.002,1.229-9.059,1.229c-8.532,0-13.553-3.514-13.553-8.077
			c0-3.019,2.563-7.83,10.533-7.83c2.14,0,2.983,0.21,3.79,0.419c-0.664-1.017-1.227-1.932-2.526-4.283
			c-5.37,1.616-10.428,2.072-12.184,2.248l-1.826-5.444c3.407-0.104,7.371-0.385,11.797-1.579c-0.42-0.913-2.245-5.057-2.632-5.901
			L165.807,9.601z"/>
		<path fill="#0063B0" d="M204.672,12.411c0.208,0.175,0.351,0.315,0.351,0.525c0,0.316-0.244,0.387-0.419,0.387
			c-0.181,0-0.388-0.071-0.6-0.141c-0.701,0.666-6.426,5.126-7.62,6.145c-1.613,1.369-3.582,3.054-4.882,4.213
			c-1.12,1.019-1.227,1.159-1.227,1.44c0,0.351,0.139,0.457,1.508,1.229c0.105,0.069,3.338,2.213,6.495,4.635
			c3.969,3.054,5.656,4.845,7.27,6.883c-1.406,1.263-2.526,2.457-4.038,4.738c-1.544-2.281-7.339-8.392-17.697-15.097
			c-0.351-0.212-1.193-0.878-1.193-2.072c0-0.913,0.143-1.334,3.688-4.145c4.845-3.792,9.376-7.936,13.378-12.605L204.672,12.411z"
			/>
		<path fill="#0063B0" d="M220.207,17.396c0.249,0.071,0.53,0.141,0.53,0.457c0,0.422-0.424,0.456-0.807,0.491
			c-0.844,1.581-1.793,3.653-2.318,6.076c3.125-2.141,7.195-3.266,10.252-3.266c6.039,0,8.989,4.46,8.989,8.639
			c0,6.707-6.32,11.305-17.941,11.305c-1.019,0-1.899-0.034-2.563-0.068c-0.212-1.932-0.493-2.879-1.65-5.901
			c1.194,0.281,2.421,0.527,5.195,0.527c7.971,0,11.133-2.984,11.133-5.935c0-1.016-0.493-3.582-4.111-3.582
			c-5.021,0-8.672,3.231-11.202,5.76l-5.021-1.825c1.02-6.004,2.074-9.833,3.688-14.537L220.207,17.396z M218.28,9.179
			c1.227,0.175,6.634,0.984,11.797,3.898c-1.337,1.862-2.213,3.372-3.162,5.126c-2.946-2.07-7.233-3.616-10.465-4.317L218.28,9.179z
			"/>
		<path fill="#0063B0" d="M272.538,12.198v4.601h-8.288c3.093,3.688,5.619,5.442,9.132,7.655c-1.688,1.581-2.355,2.354-3.162,3.863
			c-3.721-2.072-8.777-7.058-10.814-9.411l2.913-2.107h-12.115l3.232,2.001c0.387,0.247,0.562,0.353,0.562,0.634
			c0,0.456-0.599,0.419-0.875,0.35c-2.389,3.195-6.5,7.198-9.096,8.814c-0.53-0.631-1.337-1.51-3.933-3.125
			c6.039-4.32,8.077-7.374,8.916-8.674h-7.934v-4.601h12.885v-3.02l5.619,0.247c0.424,0.034,0.668,0.034,0.668,0.35
			s-0.244,0.457-0.668,0.631v1.791H272.538z M253.578,22.559c0.419,1.157,1.226,3.229,3.301,6.004
			c0.839-1.054,2.139-2.844,3.227-5.829l4.743,2.106c0.176,0.069,0.526,0.244,0.526,0.632c0,0.456-0.738,0.421-1.02,0.421
			c-0.419,0.913-1.475,3.195-4.075,6.214c2.25,1.897,7.552,4.847,13.027,5.373c-1.649,1.406-3.019,3.267-3.508,4.529
			c-5.232-1.157-10.358-4.142-13.101-6.461c-1.72,1.441-6.32,4.741-12.815,6.461c-0.771-2.106-3.264-4.214-3.407-4.354
			c6.883-1.475,10.502-3.932,12.783-5.617c-2.069-2.563-3.476-5.723-4.107-7.129L253.578,22.559z"/>
		<path fill="#0063B0" d="M284.971,22.734v10.111c0,0.844,0.176,1.791,0.982,2.741c1.088,1.229,2.388,1.229,5.863,1.229
			c10.289,0,12.046,0,17.209-0.668c-0.918,1.546-1.476,3.337-1.476,4.776h-16.752c-3.688,0-6.283-0.563-8.108-3.126
			c-0.987,0.879-2.494,2.179-3.758,3.126c0.032,0.141,0.069,0.315,0.069,0.528c0,0.244-0.037,0.596-0.424,0.596
			c-0.244,0-0.383-0.211-0.558-0.527l-2.563-4.741c1.577-0.701,3.02-1.369,4.315-2.316v-7.092h-3.02v-4.635H284.971z M279.314,9.46
			c2.25,1.369,4.394,3.195,6.007,4.951c-0.632,0.631-1.125,1.053-3.651,3.829c-2.18-2.423-2.913-3.091-5.407-5.126L279.314,9.46z
			 M294.417,30.845h-2.845v5.02h-4.707V17.746h4.813c-1.406-1.053-2.075-1.473-2.706-1.86l1.793-1.86h-3.9v-4.004h16.748
			l1.756,1.826c-0.663,0.947-2.212,3.16-5.688,5.898h6.989V32.32c0,3.37-3.232,3.616-5.722,3.723
			c-0.105-1.476-0.636-2.951-1.369-4.25c0.913,0.106,1.614,0.141,1.752,0.141c0.632,0,0.669-0.069,0.669-1.088h-3.158v4.423h-4.425
			V30.845z M294.417,21.399h-2.845v1.544h2.845V21.399z M294.417,26.104h-2.845v1.546h2.845V26.104z M292.835,14.026
			c1.545,1.297,1.72,1.473,2.526,2.176c1.056-0.772,1.688-1.404,2.355-2.176H292.835z M298.842,22.944H302v-1.544h-3.158V22.944z
			 M298.842,27.65H302v-1.546h-3.158V27.65z"/>
	</g>
</g>
</svg>
